<svg xmlns="http://www.w3.org/2000/svg" xmlns:xlink="http://www.w3.org/1999/xlink" width="500" zoomAndPan="magnify" viewBox="0 0 375 374.999991" height="500" preserveAspectRatio="xMidYMid meet" version="1.0"><defs><clipPath id="0f05aff805"><path d="M 2.59375 69.402344 L 372.34375 69.402344 L 372.34375 305.652344 L 2.59375 305.652344 Z M 2.59375 69.402344 " clip-rule="nonzero"/></clipPath></defs><g clip-path="url(#0f05aff805)"><path fill="#6b169f" d="M 353.824219 113.933594 L 347.066406 120.691406 L 340.304688 113.933594 L 347.066406 107.171875 Z M 309.511719 107.171875 L 302.753906 113.933594 L 309.511719 120.691406 L 316.273438 113.933594 Z M 328.289062 107.171875 L 321.53125 113.933594 L 328.289062 120.691406 L 335.046875 113.933594 Z M 254.113281 127.160156 C 251.957031 129.320312 249.796875 131.480469 247.640625 133.640625 L 253.1875 139.1875 L 259.664062 132.710938 Z M 271.960938 126.230469 L 265.484375 132.710938 L 271.960938 139.1875 L 278.4375 132.710938 Z M 290.738281 107.171875 L 283.976562 113.933594 L 290.738281 120.691406 L 297.496094 113.933594 Z M 309.511719 88.113281 L 302.472656 95.15625 L 309.511719 102.195312 L 316.554688 95.15625 Z M 273.027344 108.238281 C 270.777344 110.492188 268.523438 112.746094 266.269531 115 L 271.960938 120.691406 L 278.722656 113.933594 Z M 235.203125 146.085938 C 233.140625 148.152344 231.074219 150.21875 229.011719 152.285156 L 234.410156 157.683594 L 240.605469 151.488281 Z M 347.066406 126.230469 L 340.585938 132.710938 L 347.066406 139.1875 L 353.542969 132.710938 Z M 328.289062 88.113281 L 321.25 95.15625 L 328.289062 102.195312 L 335.332031 95.15625 Z M 253.1875 145.289062 L 246.988281 151.488281 L 253.1875 157.683594 L 259.382812 151.488281 Z M 271.960938 145.289062 L 265.765625 151.488281 L 271.960938 157.683594 L 278.15625 151.488281 Z M 309.511719 126.230469 L 303.035156 132.710938 L 309.511719 139.1875 L 315.992188 132.710938 Z M 365.839844 126.230469 L 359.363281 132.710938 L 365.839844 139.1875 L 372.320312 132.710938 Z M 290.738281 126.230469 L 284.261719 132.710938 L 290.738281 139.1875 L 297.214844 132.710938 Z M 328.289062 126.230469 L 321.8125 132.710938 L 328.289062 139.1875 L 334.765625 132.710938 Z M 27.875 107.171875 L 21.117188 113.933594 L 27.875 120.691406 L 34.636719 113.933594 Z M 121.753906 183.410156 L 116.121094 189.042969 L 121.753906 194.675781 L 127.386719 189.042969 Z M 159.308594 183.410156 L 153.675781 189.042969 L 159.308594 194.675781 L 164.941406 189.042969 Z M 291.941406 89.320312 C 289.597656 91.667969 287.25 94.015625 284.902344 96.363281 L 290.738281 102.195312 L 297.777344 95.15625 Z M 102.980469 183.410156 L 97.347656 189.042969 L 102.980469 194.675781 L 108.613281 189.042969 Z M 197.394531 183.945312 C 195.515625 185.824219 193.640625 187.703125 191.765625 189.582031 L 196.859375 194.675781 L 202.492188 189.042969 Z M 178.082031 183.410156 L 172.449219 189.042969 L 178.082031 194.675781 L 183.714844 189.042969 Z M 234.410156 183.410156 L 228.777344 189.042969 L 234.410156 194.675781 L 240.042969 189.042969 Z M 215.632812 183.410156 L 210 189.042969 L 215.632812 194.675781 L 221.265625 189.042969 Z M 65.425781 183.410156 L 59.796875 189.042969 L 65.425781 194.675781 L 71.058594 189.042969 Z M 140.53125 183.410156 L 134.898438 189.042969 L 140.53125 194.675781 L 146.164062 189.042969 Z M 84.203125 183.410156 L 78.570312 189.042969 L 84.203125 194.675781 L 89.835938 189.042969 Z M 46.652344 107.171875 L 39.890625 113.933594 L 46.652344 120.691406 L 53.410156 113.933594 Z M 65.425781 88.113281 L 58.386719 95.15625 L 65.425781 102.195312 L 72.46875 95.15625 Z M 310.855469 70.398438 C 308.417969 72.839844 305.976562 75.28125 303.535156 77.722656 L 309.511719 83.699219 L 316.835938 76.378906 Z M 46.652344 88.113281 L 39.609375 95.15625 L 46.652344 102.195312 L 53.691406 95.15625 Z M 84.203125 107.171875 L 77.445312 113.933594 L 84.203125 120.691406 L 90.960938 113.933594 Z M 65.425781 107.171875 L 58.667969 113.933594 L 65.425781 120.691406 L 72.1875 113.933594 Z M 290.738281 145.289062 L 284.542969 151.488281 L 290.738281 157.683594 L 296.933594 151.488281 Z M 102.90625 107.242188 L 96.21875 113.933594 L 102.980469 120.691406 L 109.667969 114.003906 C 107.414062 111.75 105.160156 109.496094 102.90625 107.242188 Z M 65.425781 145.289062 L 59.230469 151.488281 L 65.425781 157.683594 L 71.625 151.488281 Z M 309.511719 145.289062 L 303.316406 151.488281 L 309.511719 157.683594 L 315.710938 151.488281 Z M 27.875 145.289062 L 21.679688 151.488281 L 27.875 157.683594 L 34.070312 151.488281 Z M 102.980469 145.289062 L 96.785156 151.488281 L 102.980469 157.683594 L 109.175781 151.488281 Z M 46.652344 145.289062 L 40.457031 151.488281 L 46.652344 157.683594 L 52.847656 151.488281 Z M 27.875 126.230469 L 21.398438 132.710938 L 27.875 139.1875 L 34.355469 132.710938 Z M 140.53125 145.289062 L 134.335938 151.488281 L 140.53125 157.683594 L 146.726562 151.488281 Z M 121.753906 145.289062 L 115.558594 151.488281 L 121.753906 157.683594 L 127.953125 151.488281 Z M 65.425781 164.351562 L 59.511719 170.265625 L 65.425781 176.179688 L 71.34375 170.265625 Z M 159.308594 164.351562 L 153.390625 170.265625 L 159.308594 176.179688 L 165.222656 170.265625 Z M 9.101562 126.230469 L 2.621094 132.710938 L 9.101562 139.1875 L 15.578125 132.710938 Z M 84.203125 164.351562 L 78.289062 170.265625 L 84.203125 176.179688 L 90.117188 170.265625 Z M 46.652344 164.351562 L 40.738281 170.265625 L 46.652344 176.179688 L 52.566406 170.265625 Z M 102.980469 164.351562 L 97.066406 170.265625 L 102.980469 176.179688 L 108.894531 170.265625 Z M 140.53125 164.351562 L 134.617188 170.265625 L 140.53125 176.179688 L 146.445312 170.265625 Z M 121.753906 164.351562 L 115.839844 170.265625 L 121.753906 176.179688 L 127.667969 170.265625 Z M 84.203125 145.289062 L 78.007812 151.488281 L 84.203125 157.683594 L 90.398438 151.488281 Z M 234.410156 164.351562 L 228.496094 170.265625 L 234.410156 176.179688 L 240.324219 170.265625 Z M 253.1875 164.351562 L 247.273438 170.265625 L 253.1875 176.179688 L 259.101562 170.265625 Z M 271.960938 164.351562 L 266.046875 170.265625 L 271.960938 176.179688 L 277.875 170.265625 Z M 46.652344 126.230469 L 40.175781 132.710938 L 46.652344 139.1875 L 53.128906 132.710938 Z M 216.296875 165.011719 C 214.324219 166.984375 212.355469 168.957031 210.386719 170.929688 L 215.632812 176.179688 L 221.546875 170.265625 Z M 347.066406 145.289062 L 340.867188 151.488281 L 347.066406 157.683594 L 353.261719 151.488281 Z M 328.289062 164.351562 L 322.375 170.265625 L 328.289062 176.179688 L 334.203125 170.265625 Z M 328.289062 145.289062 L 322.09375 151.488281 L 328.289062 157.683594 L 334.484375 151.488281 Z M 290.738281 164.351562 L 284.824219 170.265625 L 290.738281 176.179688 L 296.652344 170.265625 Z M 309.511719 164.351562 L 303.597656 170.265625 L 309.511719 176.179688 L 315.429688 170.265625 Z M 102.980469 126.230469 L 96.5 132.710938 L 102.980469 139.1875 L 109.457031 132.710938 Z M 121.753906 126.230469 L 115.277344 132.710938 L 121.753906 139.1875 L 128.234375 132.710938 Z M 65.425781 126.230469 L 58.949219 132.710938 L 65.425781 139.1875 L 71.90625 132.710938 Z M 84.203125 126.230469 L 77.726562 132.710938 L 84.203125 139.1875 L 90.679688 132.710938 Z M 65.078125 69.402344 L 58.105469 76.378906 L 65.425781 83.699219 L 72.398438 76.726562 C 69.957031 74.285156 67.519531 71.84375 65.078125 69.402344 Z M 253.1875 183.410156 L 247.554688 189.042969 L 253.1875 194.675781 L 258.820312 189.042969 Z M 83.992188 88.324219 L 77.164062 95.15625 L 84.203125 102.195312 L 91.03125 95.367188 C 88.6875 93.019531 86.339844 90.671875 83.992188 88.324219 Z M 215.632812 240.585938 L 210.847656 245.375 L 215.632812 250.164062 L 220.421875 245.375 Z M 234.410156 221.527344 L 229.339844 226.597656 L 234.410156 231.667969 L 239.480469 226.597656 Z M 271.960938 221.527344 L 266.890625 226.597656 L 271.960938 231.667969 L 277.03125 226.597656 Z M 196.859375 221.527344 L 191.789062 226.597656 L 196.859375 231.667969 L 201.929688 226.597656 Z M 215.632812 221.527344 L 210.566406 226.597656 L 215.632812 231.667969 L 220.703125 226.597656 Z M 121.753906 202.46875 L 116.402344 207.820312 L 121.753906 213.171875 L 127.105469 207.820312 Z M 84.203125 202.46875 L 78.851562 207.820312 L 84.203125 213.171875 L 89.554688 207.820312 Z M 102.980469 202.46875 L 97.628906 207.820312 L 102.980469 213.171875 L 108.332031 207.820312 Z M 253.1875 221.527344 L 248.117188 226.597656 L 253.1875 231.667969 L 258.253906 226.597656 Z M 178.082031 221.527344 L 173.011719 226.597656 L 178.082031 231.667969 L 183.152344 226.597656 Z M 121.753906 221.527344 L 116.6875 226.597656 L 121.753906 231.667969 L 126.824219 226.597656 Z M 253.1875 240.585938 L 248.398438 245.375 L 253.1875 250.164062 L 257.972656 245.375 Z M 234.410156 240.585938 L 229.621094 245.375 L 234.410156 250.164062 L 239.199219 245.375 Z M 196.859375 240.585938 L 192.070312 245.375 L 196.859375 250.164062 L 201.644531 245.375 Z M 102.980469 221.527344 L 97.910156 226.597656 L 102.980469 231.667969 L 108.046875 226.597656 Z M 159.308594 221.527344 L 154.238281 226.597656 L 159.308594 231.667969 L 164.375 226.597656 Z M 140.53125 221.527344 L 135.460938 226.597656 L 140.53125 231.667969 L 145.601562 226.597656 Z M 140.53125 202.46875 L 135.179688 207.820312 L 140.53125 213.171875 L 145.882812 207.820312 Z M 196.859375 202.46875 L 191.507812 207.820312 L 196.859375 213.171875 L 202.210938 207.820312 Z M 215.632812 202.46875 L 210.28125 207.820312 L 215.632812 213.171875 L 220.984375 207.820312 Z M 178.082031 202.46875 L 172.730469 207.820312 L 178.082031 213.171875 L 183.433594 207.820312 Z M 271.960938 183.410156 L 266.328125 189.042969 L 271.960938 194.675781 L 277.59375 189.042969 Z M 159.308594 202.46875 L 153.957031 207.820312 L 159.308594 213.171875 L 164.65625 207.820312 Z M 234.410156 202.46875 L 229.058594 207.820312 L 234.410156 213.171875 L 239.761719 207.820312 Z M 271.960938 202.46875 L 266.609375 207.820312 L 271.960938 213.171875 L 277.3125 207.820312 Z M 253.1875 202.46875 L 247.835938 207.820312 L 253.1875 213.171875 L 258.535156 207.820312 Z M 290.738281 202.46875 L 285.386719 207.820312 L 290.738281 213.171875 L 296.089844 207.820312 Z M 309.511719 183.410156 L 303.878906 189.042969 L 309.511719 194.675781 L 315.144531 189.042969 Z M 196.859375 305.652344 L 200.800781 301.707031 L 196.859375 297.765625 L 192.914062 301.707031 Z M 290.738281 183.410156 L 285.105469 189.042969 L 290.738281 194.675781 L 296.371094 189.042969 Z M 140.53125 259.644531 L 136.023438 264.152344 L 140.53125 268.660156 L 145.039062 264.152344 Z M 215.632812 259.644531 L 211.128906 264.152344 L 215.632812 268.660156 L 220.140625 264.152344 Z M 178.082031 297.765625 L 174.140625 301.707031 L 178.082031 305.652344 L 182.027344 301.707031 Z M 196.859375 259.644531 L 192.351562 264.152344 L 196.859375 268.660156 L 201.363281 264.152344 Z M 140.53125 240.585938 L 135.742188 245.375 L 140.53125 250.164062 L 145.320312 245.375 Z M 159.308594 240.585938 L 154.519531 245.375 L 159.308594 250.164062 L 164.09375 245.375 Z M 121.753906 240.585938 L 116.96875 245.375 L 121.753906 250.164062 L 126.542969 245.375 Z M 178.082031 259.644531 L 173.578125 264.152344 L 178.082031 268.660156 L 182.589844 264.152344 Z M 234.410156 259.644531 L 229.902344 264.152344 L 234.410156 268.660156 L 238.917969 264.152344 Z M 178.082031 278.703125 L 173.859375 282.929688 L 178.082031 287.15625 L 182.308594 282.929688 Z M 159.308594 278.703125 L 155.082031 282.929688 L 159.308594 287.15625 L 163.53125 282.929688 Z M 196.859375 278.703125 L 192.632812 282.929688 L 196.859375 287.15625 L 201.082031 282.929688 Z M 178.082031 240.585938 L 173.292969 245.375 L 178.082031 250.164062 L 182.871094 245.375 Z M 215.632812 278.703125 L 211.410156 282.929688 L 215.632812 287.15625 L 219.859375 282.929688 Z M 159.308594 259.644531 L 154.800781 264.152344 L 159.308594 268.660156 L 163.8125 264.152344 Z M 159.308594 259.644531 " fill-opacity="1" fill-rule="nonzero"/></g></svg>